<?xml version="1.0" encoding="UTF-8" standalone="no"?>
<!-- Created with Inkscape (http://www.inkscape.org/) -->

<svg
   xmlns:dc="http://purl.org/dc/elements/1.1/"
   xmlns:cc="http://creativecommons.org/ns#"
   xmlns:rdf="http://www.w3.org/1999/02/22-rdf-syntax-ns#"
   xmlns:svg="http://www.w3.org/2000/svg"
   xmlns="http://www.w3.org/2000/svg"
   xmlns:sodipodi="http://sodipodi.sourceforge.net/DTD/sodipodi-0.dtd"
   xmlns:inkscape="http://www.inkscape.org/namespaces/inkscape"
   version="1.1"
   id="svg64"
   width="200"
   height="200"
   viewBox="0 0 1769.4828 1768.031"
   sodipodi:docname="pokeball.svg"
   inkscape:version="0.92.5 (2060ec1f9f, 2020-04-08)">
  <metadata
     id="metadata70">
    <rdf:RDF>
      <cc:Work
         rdf:about="">
        <dc:format>image/svg+xml</dc:format>
        <dc:type
           rdf:resource="http://purl.org/dc/dcmitype/StillImage" />
        <dc:title></dc:title>
      </cc:Work>
    </rdf:RDF>
  </metadata>
  <defs
     id="defs68" />
  <sodipodi:namedview
     pagecolor="#ffffff"
     bordercolor="#666666"
     borderopacity="1"
     objecttolerance="10"
     gridtolerance="10"
     guidetolerance="10"
     inkscape:pageopacity="0"
     inkscape:pageshadow="2"
     inkscape:window-width="1856"
     inkscape:window-height="1016"
     id="namedview66"
     showgrid="false"
     inkscape:zoom="0.40897999"
     inkscape:cx="960.26822"
     inkscape:cy="896.2844"
     inkscape:window-x="64"
     inkscape:window-y="27"
     inkscape:window-maximized="1"
     inkscape:current-layer="svg64" />
  <g
     id="g444"
     transform="translate(-141.53011,-140.52786)">
    <path
       style="fill:#fefefe"
       d="M 972.5,1906.9365 C 180.3051,1860.2275 -150.61249,865.87984 454,348.93758 898.48232,-31.09376 1599.5572,128.9168 1834.4236,664 2101.6546,1272.8176 1634.8388,1945.989 972.5,1906.9365 Z"
       id="path484"
       inkscape:connector-curvature="0" />
    <path
       style="fill:#e7e7e7"
       d="M 982.5,1906.9843 C 295.14026,1869.9316 -90.792563,1098.3628 293.74292,530 673.10956,-30.722996 1518.1465,26.638029 1818.4946,633.5 2115.8529,1234.3207 1650.6311,1943.0006 982.5,1906.9843 Z m 78.5,-146.0017 c 41.8198,-2.2974 82.2325,-7.8094 121.9873,-16.6383 12.6962,-2.8196 15.984,-4.2789 32.9102,-14.6075 182.1142,-111.1282 311.1427,-311.4288 351.5496,-545.7368 5.6377,-32.6916 12.5801,-92.8808 11.1446,-96.6216 -0.4502,-1.1731 -21.0467,-1.3468 -134.2727,-1.132 l -133.7411,0.2536 -2.6421,10.2077 c -76.0915,293.9702 -490.32385,289.2435 -565.92628,-6.4577 L 740.92291,1086 H 511.46146 c -217.86863,0 -229.46138,0.088 -229.45997,1.75 0.003,4.0839 4.21099,37.6714 6.46606,51.6168 C 348.85381,1512.8 683.09089,1781.7427 1061,1760.9826 Z m -17.5,-569.4985 c 93.7502,-6.7525 165.2002,-101.316 148.081,-195.9841 C 1167.6225,863.01163 1006.0923,810.01688 909.63699,903 805.39458,1003.4899 869.49004,1181.8056 1013.5,1191.9504 c 10.7536,0.7575 13.6295,0.7128 30,-0.4663 z"
       id="path482"
       inkscape:connector-curvature="0" />
    <path
       style="fill:#dddddd"
       d="M 974.5,1905.9365 C 300.92095,1866.2212 -82.187471,1110.7296 284.37161,545 645.63481,-12.556186 1472.6494,13.961021 1796.9821,593.5 2136.092,1199.4436 1667.7296,1946.8103 974.5,1905.9365 Z m 76.5,-143.9573 c 74.9915,-3.3133 139.3031,-15.0518 164.5103,-30.0273 170.5328,-101.3129 299.8114,-292.1163 346.8721,-511.9519 8.9014,-41.5816 20.7171,-128.794 18.0367,-133.1309 C 1580.1192,1086.3839 1520.2842,1086 1444.96,1086 h -134.9219 l -0.6234,2.75 c -67.0395,295.742 -498.06546,299.5497 -565.99312,5 L 741.63431,1086 H 511.87617 c -126.36697,0 -229.95863,0.3375 -230.20367,0.75 -1.37576,2.3159 6.44108,56.9535 11.98186,83.75 73.509,355.5063 396.09207,607.4404 757.34564,591.4792 z m -2.8012,-570.4722 c 123.6177,-16.3315 187.4488,-157.4049 117.9193,-260.61423 -77.71,-115.35257 -254.06607,-93.14967 -299.44103,37.69906 -40.99778,118.22617 57.58457,239.28877 181.52173,222.91517 z"
       id="path480"
       inkscape:connector-curvature="0" />
    <path
       style="fill:#c9c9c9"
       d="M 979,1905.9309 C 299.59709,1869.8749 -86.329859,1102.9886 290.10083,537 663.2242,-24.015856 1502.2261,22.0442 1811.0859,620.5 2122.2368,1223.3949 1657.1214,1941.9189 979,1905.9309 Z m 96.5,-144.9011 c 41.5897,-3.2561 97.8573,-12.2387 122,-19.4761 4.4,-1.319 14.075,-4.0534 21.5,-6.0764 278.0236,-75.7504 491.5116,-314.7863 535.4056,-599.4773 2.9488,-19.1255 5.5723,-40.8496 5.5853,-46.25 l 0.01,-3.75 h -225.0314 c -179.1465,0 -225.1124,0.2549 -225.4288,1.25 -0.2186,0.6875 -1.9706,7.1419 -3.8935,14.343 -76.9629,288.2334 -498.34521,278.6222 -563.07369,-12.843 L 741.9628,1086 H 511.454 280.9452 l 0.62817,6.75 c 34.21492,367.6555 329.7227,646.7949 708.92753,669.6596 10.7929,0.6507 71.6907,-0.3378 85,-1.3798 z m -16.0545,-570.9384 c 130.4476,-26.9761 180.3733,-186.1519 88.5904,-282.44869 -87.2005,-91.4889 -242.27983,-57.26262 -282.06469,62.25217 -41.0124,123.20242 67.16179,246.31732 193.47429,220.19652 z"
       id="path478"
       inkscape:connector-curvature="0" />
    <path
       style="fill:#b0b0b0"
       d="M 995,1906.3014 C 356.25279,1887.2404 -51.100234,1198.778 238.05624,627 542.8395,24.321544 1387.1584,-26.131504 1760.918,536 2157.3367,1132.2106 1712.6946,1927.7183 995,1906.3014 Z m 70.5171,-144.3219 c 333.6443,-21.3037 610.6869,-258.8665 681.9714,-584.7874 5.9817,-27.3492 15.0938,-88.9432 13.4075,-90.6294 -0.2466,-0.2467 -101.8942,-0.5867 -225.8834,-0.7556 l -225.435,-0.3071 -0.7536,3 c -73.8621,294.0119 -489.69123,301.393 -563.37298,10 -1.5298,-6.05 -3.21221,-11.5625 -3.73869,-12.25 -0.76088,-0.9936 -48.13742,-1.25 -230.97229,-1.25 H 280.72496 l 0.69207,8.75 c 27.59165,348.8474 326.97602,641.9097 681.58297,667.1899 8.525,0.6078 17.3,1.2443 19.5,1.4145 10.32274,0.7985 68.7734,0.5345 83.0171,-0.3749 z M 1041.5,1192.9635 c 117.8053,-11.0823 188.1392,-135.1809 137.0059,-241.73624 C 1117.7156,824.54795 937.13747,822.92793 874.50744,948.5 815.51929,1066.7702 910.16167,1205.3189 1041.5,1192.9635 Z"
       id="path476"
       inkscape:connector-curvature="0" />
    <path
       style="fill:#8e8e8e"
       d="M 976,1904.9221 C 297.79121,1865.5076 -84.89686,1101.3698 290.93054,537 667.17899,-28.002105 1515.0222,25.353261 1816.4181,633 2115.684,1236.3524 1648.1197,1943.9827 976,1904.9221 Z m 77.5,-141.9446 c 367.4631,-17.8386 664.8998,-295.4081 706.5403,-659.3469 1.0616,-9.2782 1.6852,-17.2657 1.3859,-17.75 -0.311,-0.5033 -97.2959,-0.8806 -226.3343,-0.8806 h -225.7902 l -2.7879,10.75 c -74.7434,288.2006 -484.43253,289.479 -560.84566,1.75 l -3.18688,-12 -230.43849,-0.2521 c -126.74117,-0.1387 -230.78936,0.099 -231.2182,0.5275 -1.48527,1.4853 3.94731,43.9239 9.30951,72.7246 67.28984,361.4185 396.71527,622.2767 763.36592,604.4775 z m 2.7618,-571.4094 C 1250.6029,1155.1968 1234.6993,868.90846 1037.5673,855.03862 819.40847,839.68938 790.84866,1166.4863 1008,1193.3635 c 7.891,0.9767 39.7909,-0.21 48.2618,-1.7954 z"
       id="path474"
       inkscape:connector-curvature="0" />
    <path
       style="fill:#6f6f6f"
       d="M 984.70502,1905.024 C 298.31643,1869.4944 -88.596642,1099.5007 294.77605,532 673.35404,-28.403184 1517.1436,28.511401 1816.7746,634.66056 2112.7442,1233.4029 1650.2765,1939.4761 984.70502,1905.024 Z M 1079,1762.0809 c 335.0122,-28.7987 606.7357,-270.0476 671.9412,-596.5809 5.7013,-28.5509 12.5438,-78.3483 10.9804,-79.9117 -1.3696,-1.3696 -451.4526,-1.8624 -452.5064,-0.4955 -0.5966,0.774 -2.3421,6.3572 -3.8788,12.4072 -72.6084,285.8558 -485.78695,285.513 -559.65101,-0.4644 -1.6286,-6.3054 -3.50656,-11.811 -4.17324,-12.2347 -2.70558,-1.7193 -460.72232,-0.938 -461.38431,0.7871 -1.40595,3.6639 5.16479,51.7928 11.25117,82.412 64.46112,324.289 344.44326,571.2406 673.42099,593.975 8.525,0.5891 17.525,1.2359 20,1.4372 9.10333,0.7404 81.8915,-0.2905 94,-1.3313 z m -23.3223,-570.133 c 128.8585,-21.7789 184.5605,-176.8535 99.8012,-277.84677 -78.7452,-93.82731 -231.20515,-73.82708 -283.46008,37.18531 -58.56392,124.41546 47.68629,263.64276 183.65888,240.66146 z"
       id="path472"
       inkscape:connector-curvature="0" />
    <path
       style="fill:#fd1a1a"
       d="M 1000,1904.864 C 313.21447,1887.7344 -89.421476,1109.906 291.9374,537 667.05773,-26.533969 1513.3316,26.256226 1814.8721,632 2110.9335,1226.7372 1666.168,1921.4793 1000,1904.864 Z m 47,-140.8821 c 371.6839,-14.3646 674.2808,-295.5453 714.4743,-663.9077 0.8657,-7.9343 1.2022,-14.7977 0.7477,-15.2522 -0.4545,-0.4545 -102.7276,-0.7129 -227.2735,-0.5742 l -226.4471,0.2522 -2.795,11 c -72.6216,285.8145 -484.95578,288.3971 -558.81473,3.5 -1.78233,-6.875 -3.66719,-13.0625 -4.18858,-13.75 -0.75357,-0.9937 -48.27435,-1.25 -231.71855,-1.25 -183.69866,0 -230.86661,0.255 -231.24141,1.25 -2.42535,6.4387 10.52125,84.0128 20.31925,121.75 85.09813,327.757 368.00949,548.0352 716.43762,557.8269 2.75,0.077 16.475,-0.303 30.5,-0.845 z m 1.3746,-570.4682 c 139.8484,-18.6119 197.8993,-189.5144 98.1802,-289.0437 -95.9314,-95.74885 -258.91849,-48.37727 -287.39398,83.53 -24.78109,114.7937 72.98522,220.9821 189.21378,205.5137 z"
       id="path470"
       inkscape:connector-curvature="0" />
    <path
       style="fill:#e61919"
       d="M 1000,1904.864 C 313.21447,1887.7344 -89.421476,1109.906 291.9374,537 667.05773,-26.533969 1513.3316,26.256226 1814.8721,632 2110.9335,1226.7372 1666.168,1921.4793 1000,1904.864 Z m 47,-140.8821 c 371.6839,-14.3646 674.2808,-295.5453 714.4743,-663.9077 0.8657,-7.9343 1.2022,-14.7977 0.7477,-15.2522 -0.4545,-0.4545 -102.7276,-0.7129 -227.2735,-0.5742 l -226.4471,0.2522 -2.795,11 c -72.6216,285.8145 -484.95578,288.3971 -558.81473,3.5 -1.78233,-6.875 -3.66719,-13.0625 -4.18858,-13.75 -0.75357,-0.9937 -48.27435,-1.25 -231.71855,-1.25 -183.69866,0 -230.86661,0.255 -231.24141,1.25 -2.42535,6.4387 10.52125,84.0128 20.31925,121.75 85.09813,327.757 368.00949,548.0352 716.43762,557.8269 2.75,0.077 16.475,-0.303 30.5,-0.845 z m 1.3746,-570.4682 c 139.8484,-18.6119 197.8993,-189.5144 98.1802,-289.0437 -95.9314,-95.74885 -258.91849,-48.37727 -287.39398,83.53 -24.78109,114.7937 72.98522,220.9821 189.21378,205.5137 z M 743.60328,953 C 816.96434,662.65047 1232.6647,662.20858 1307.8821,952.40016 L 1310.5,962.5 h 134 134 l -0.2893,-9.5 C 1570.4818,699.19354 1401.517,414.40043 1194.8528,306.84337 1185.392,301.91955 1144.536,294.50724 1105,290.54178 704.92154,250.41398 345.21657,536.59069 294.50513,935.36121 293.12731,946.19572 292,956.84773 292,959.03235 v 3.97203 L 516.60148,962.75219 741.20297,962.5 Z"
       id="path468"
       inkscape:connector-curvature="0" />
    <path
       style="fill:#dd1717"
       d="M 1000,1904.864 C 313.21447,1887.7344 -89.421476,1109.906 291.9374,537 667.05773,-26.533969 1513.3316,26.256226 1814.8721,632 2110.9335,1226.7372 1666.168,1921.4793 1000,1904.864 Z m 47,-140.8821 c 371.6839,-14.3646 674.2808,-295.5453 714.4743,-663.9077 0.8657,-7.9343 1.2022,-14.7977 0.7477,-15.2522 -0.4545,-0.4545 -102.7276,-0.7129 -227.2735,-0.5742 l -226.4471,0.2522 -2.795,11 c -72.6216,285.8145 -484.95578,288.3971 -558.81473,3.5 -1.78233,-6.875 -3.66719,-13.0625 -4.18858,-13.75 -0.75357,-0.9937 -48.27435,-1.25 -231.71855,-1.25 -183.69866,0 -230.86661,0.255 -231.24141,1.25 -2.42535,6.4387 10.52125,84.0128 20.31925,121.75 85.09813,327.757 368.00949,548.0352 716.43762,557.8269 2.75,0.077 16.475,-0.303 30.5,-0.845 z m 1.3746,-570.4682 c 139.8484,-18.6119 197.8993,-189.5144 98.1802,-289.0437 -95.9314,-95.74885 -258.91849,-48.37727 -287.39398,83.53 -24.78109,114.7937 72.98522,220.9821 189.21378,205.5137 z M 743.42158,955.25 C 810.48122,664.4642 1234.0667,662.77429 1307.3967,953 l 2.4003,9.5 H 1445.1485 1580.5 l -0.2886,-8 C 1579.5261,935.50089 1574.8045,896.3022 1569.431,865 1528.6872,627.65785 1395.4616,422.71954 1211.3188,314.12335 1194.1836,304.01804 1185.9462,301.59053 1148.5,295.61109 729.97004,228.77978 340.62154,524.6216 292.54276,946 c -0.84718,7.425 -1.54088,14.2875 -1.54155,15.25 -0.001,1.66149 11.39438,1.75 225.31595,1.75 h 225.31715 z"
       id="path466"
       inkscape:connector-curvature="0" />
    <path
       style="fill:#4d4d4d"
       d="M 1000,1904.864 C 313.21447,1887.7344 -89.421476,1109.906 291.9374,537 667.05773,-26.533969 1513.3316,26.256226 1814.8721,632 2110.9335,1226.7372 1666.168,1921.4793 1000,1904.864 Z m 47,-140.8821 c 371.6839,-14.3646 674.2808,-295.5453 714.4743,-663.9077 0.8657,-7.9343 1.2022,-14.7977 0.7477,-15.2522 -0.4545,-0.4545 -102.7276,-0.7129 -227.2735,-0.5742 l -226.4471,0.2522 -2.795,11 c -72.6216,285.8145 -484.95578,288.3971 -558.81473,3.5 -1.78233,-6.875 -3.66719,-13.0625 -4.18858,-13.75 -0.75357,-0.9937 -48.27435,-1.25 -231.71855,-1.25 -183.69866,0 -230.86661,0.255 -231.24141,1.25 -2.42535,6.4387 10.52125,84.0128 20.31925,121.75 85.09813,327.757 368.00949,548.0352 716.43762,557.8269 2.75,0.077 16.475,-0.303 30.5,-0.845 z m 1.3746,-570.4682 c 139.8484,-18.6119 197.8993,-189.5144 98.1802,-289.0437 -95.9314,-95.74885 -258.91849,-48.37727 -287.39398,83.53 -24.78109,114.7937 72.98522,220.9821 189.21378,205.5137 z M 741.71234,962.75 c 0.52647,-0.6875 1.52806,-3.95 2.22576,-7.25 20.79145,-98.34079 107.57356,-186.03339 210.18721,-212.39244 155.16639,-39.85861 317.71419,57.71545 353.45399,212.17097 1.5661,6.76825 2.1238,7.85984 4.2943,8.4046 2.6796,0.67253 457.3334,-0.55683 458.0151,-1.23845 1.3836,-1.38366 -5.3359,-50.61645 -10.4632,-76.66195 C 1677.8502,471.39813 1266.4992,207.57212 856.27131,306.53155 575.57945,374.24297 358.3075,600.04825 302.06909,882.5 c -6.2916,31.59897 -12.26826,75.93263 -10.76474,79.85075 0.84149,2.19289 448.73042,2.58991 450.40799,0.39925 z"
       id="path464"
       inkscape:connector-curvature="0" />
    <path
       style="fill:#b01717"
       d="M 990,1904.3237 C 303.53537,1873.5936 -87.330052,1105.4639 293.46831,535.49784 681.99973,-46.042805 1562.863,37.127306 1837.3893,681.27311 2089.168,1272.044 1631.2061,1933.0277 990,1904.3237 Z m 87,-141.2763 c 351.5802,-29.566 630.1959,-289.5892 681.5268,-636.0474 2.6475,-17.8694 5.113,-41.6935 4.3896,-42.4169 -1.467,-1.467 -450.8919,-1.8292 -453.1263,-0.3651 -1.706,1.1178 -2.6845,3.2081 -3.6185,7.73 -15.9982,77.4559 -76.9652,153.7615 -152.6716,191.0823 -164.54311,81.1142 -362.5094,-10.0798 -407.09539,-187.5303 -1.40045,-5.5737 -3.23723,-10.5533 -4.14973,-11.25 -2.20062,-1.6802 -458.26293,-1.8512 -461.39873,-0.173 -2.39016,1.2792 -2.21339,4.7836 1.76162,34.923 39.71548,301.1315 261.32175,549.4028 556.57832,623.5492 48.42122,12.1598 87.06427,17.8378 148.80391,21.8643 10.57294,0.6896 76.6088,-0.324 89,-1.3661 z m -16.5,-571.0115 c 203.2331,-43.7131 164.5906,-349.99765 -42.7228,-338.62574 -207.13172,11.36193 -217.91212,310.76034 -12.2772,340.96764 8.8384,1.2984 45.2922,-0.2538 55,-2.3419 z M 741.71234,962.75 c 0.52647,-0.6875 1.52806,-3.95 2.22576,-7.25 20.79145,-98.34079 107.57356,-186.03339 210.18721,-212.39244 155.16639,-39.85861 317.71419,57.71545 353.45399,212.17097 1.5661,6.76825 2.1238,7.85984 4.2943,8.4046 2.6796,0.67253 457.3334,-0.55683 458.0151,-1.23845 1.3836,-1.38366 -5.3359,-50.61645 -10.4632,-76.66195 C 1677.8502,471.39813 1266.4992,207.57212 856.27131,306.53155 575.57945,374.24297 358.3075,600.04825 302.06909,882.5 c -6.2916,31.59897 -12.26826,75.93263 -10.76474,79.85075 0.84149,2.19289 448.73042,2.58991 450.40799,0.39925 z"
       id="path462"
       inkscape:connector-curvature="0" />
    <path
       style="fill:#8d1616"
       d="M 990,1904.3237 C 303.53537,1873.5936 -87.330052,1105.4639 293.46831,535.49784 681.99973,-46.042805 1562.863,37.127306 1837.3893,681.27311 2089.168,1272.044 1631.2061,1933.0277 990,1904.3237 Z m 87,-141.2763 c 351.5802,-29.566 630.1959,-289.5892 681.5268,-636.0474 2.6475,-17.8694 5.113,-41.6935 4.3896,-42.4169 -1.467,-1.467 -450.8919,-1.8292 -453.1263,-0.3651 -1.706,1.1178 -2.6845,3.2081 -3.6185,7.73 -15.9982,77.4559 -76.9652,153.7615 -152.6716,191.0823 -164.54311,81.1142 -362.5094,-10.0798 -407.09539,-187.5303 -1.40045,-5.5737 -3.23723,-10.5533 -4.14973,-11.25 -2.20062,-1.6802 -458.26293,-1.8512 -461.39873,-0.173 -2.39016,1.2792 -2.21339,4.7836 1.76162,34.923 39.71548,301.1315 261.32175,549.4028 556.57832,623.5492 48.42122,12.1598 87.06427,17.8378 148.80391,21.8643 10.57294,0.6896 76.6088,-0.324 89,-1.3661 z m -16.5,-571.0115 c 203.2331,-43.7131 164.5906,-349.99765 -42.7228,-338.62574 -207.13172,11.36193 -217.91212,310.76034 -12.2772,340.96764 8.8384,1.2984 45.2922,-0.2538 55,-2.3419 z M 745.21296,953 c 74.864,-289.7471 489.09114,-288.08825 561.84014,2.25 l 2.1925,8.75 H 1540.1228 1771 v -2.25 C 1770.949,884.28902 1723.8242,738.73836 1669.62,648.62312 1353.7736,123.52751 577.83765,180.60369 342.63587,746.23312 316.10191,810.04381 290,916.91817 290,961.75084 v 2.25351 L 516.25,963.75217 742.5,963.5 Z"
       id="path460"
       inkscape:connector-curvature="0" />
    <path
       style="fill:#373737"
       d="M 990,1904.3237 C 303.53537,1873.5936 -87.330052,1105.4639 293.46831,535.49784 681.99973,-46.042805 1562.863,37.127306 1837.3893,681.27311 2089.168,1272.044 1631.2061,1933.0277 990,1904.3237 Z m 87,-141.2763 c 351.5802,-29.566 630.1959,-289.5892 681.5268,-636.0474 2.6475,-17.8694 5.113,-41.6935 4.3896,-42.4169 -1.467,-1.467 -450.8919,-1.8292 -453.1263,-0.3651 -1.706,1.1178 -2.6845,3.2081 -3.6185,7.73 -15.9982,77.4559 -76.9652,153.7615 -152.6716,191.0823 -164.54311,81.1142 -362.5094,-10.0798 -407.09539,-187.5303 -1.40045,-5.5737 -3.23723,-10.5533 -4.14973,-11.25 -2.20062,-1.6802 -458.26293,-1.8512 -461.39873,-0.173 -2.39016,1.2792 -2.21339,4.7836 1.76162,34.923 39.71548,301.1315 261.32175,549.4028 556.57832,623.5492 48.42122,12.1598 87.06427,17.8378 148.80391,21.8643 10.57294,0.6896 76.6088,-0.324 89,-1.3661 z m -16.5,-571.0115 c 203.2331,-43.7131 164.5906,-349.99765 -42.7228,-338.62574 -207.13172,11.36193 -217.91212,310.76034 -12.2772,340.96764 8.8384,1.2984 45.2922,-0.2538 55,-2.3419 z M 742.42863,964.11547 c 0.30067,-0.48649 1.86769,-5.99899 3.48226,-12.25 C 819.7404,666.02623 1232.9565,665.75638 1305.5364,951.5 c 1.5367,6.05 3.2822,11.63225 3.8788,12.405 1.1627,1.50594 460.32,0.79143 461.7224,-0.71851 0.3507,-0.37757 -0.2034,-8.25186 -1.2315,-17.49842 C 1731.2827,598.2877 1453.6051,323.64399 1105.5,288.5412 712.87712,248.94926 357.67085,522.80902 295.55376,913 c -3.97609,24.976 -6.5223,49.26435 -5.32025,50.75 1.21816,1.50557 451.26571,1.8693 452.19512,0.36547 z"
       id="path458"
       inkscape:connector-curvature="0" />
    <path
       style="fill:#701212"
       d="M 988.14826,1903.9365 C 374.46702,1877.282 -24.566781,1243.9055 216.16236,678.58233 445.70611,139.52676 1133.1482,-28.073337 1585.698,344.68613 2025.6636,707.08018 2009.8584,1386.6902 1553.5,1729.1681 c -162.2298,121.7467 -362.2798,183.5886 -565.35174,174.7684 z m 78.36884,-139.9644 c 344.0449,-22.1256 626.7588,-273.6453 688.4327,-612.4721 5.1011,-28.0242 9.4533,-65.3093 7.8492,-67.2422 -1.5305,-1.8441 -453.0722,-1.8519 -454.5682,-0.01 -0.5577,0.6875 -1.5567,3.95 -2.22,7.25 -4.8507,24.1344 -22.8461,65.9199 -38.7595,90 -139.9782,211.8143 -458.81335,156.5153 -521.77809,-90.4975 -0.91094,-3.5737 -2.17757,-6.8293 -2.81473,-7.2347 -2.80717,-1.7862 -462.68146,-0.8715 -463.36956,0.9217 -0.84085,2.1912 1.14852,22.3491 4.30841,43.6565 52.07234,351.1273 341.8569,615.7651 696.40267,635.9706 14.13923,0.8058 72.2273,0.5745 86.5171,-0.3445 z M 1053,1193.6124 c 126.8439,-21.047 186.8793,-167.7669 110.8146,-270.81873 C 1081.9428,811.87444 907.93848,838.66167 863.6677,969 822.51269,1090.1652 927.29346,1214.4707 1053,1193.6124 Z M 742.42863,964.11547 c 0.30067,-0.48649 1.86769,-5.99899 3.48226,-12.25 C 819.7404,666.02623 1232.9565,665.75638 1305.5364,951.5 c 1.5367,6.05 3.2822,11.63225 3.8788,12.405 1.1627,1.50594 460.32,0.79143 461.7224,-0.71851 0.3507,-0.37757 -0.2034,-8.25186 -1.2315,-17.49842 C 1731.2827,598.2877 1453.6051,323.64399 1105.5,288.5412 712.87712,248.94926 357.67085,522.80902 295.55376,913 c -3.97609,24.976 -6.5223,49.26435 -5.32025,50.75 1.21816,1.50557 451.26571,1.8693 452.19512,0.36547 z"
       id="path456"
       inkscape:connector-curvature="0" />
    <path
       style="fill:#272727"
       d="M 988.14826,1903.9365 C 374.46702,1877.282 -24.566781,1243.9055 216.16236,678.58233 445.70611,139.52676 1133.1482,-28.073337 1585.698,344.68613 2025.6636,707.08018 2009.8584,1386.6902 1553.5,1729.1681 c -162.2298,121.7467 -362.2798,183.5886 -565.35174,174.7684 z m 78.36884,-139.9644 c 344.0449,-22.1256 626.7588,-273.6453 688.4327,-612.4721 5.1011,-28.0242 9.4533,-65.3093 7.8492,-67.2422 -1.5305,-1.8441 -453.0722,-1.8519 -454.5682,-0.01 -0.5577,0.6875 -1.5567,3.95 -2.22,7.25 -4.8507,24.1344 -22.8461,65.9199 -38.7595,90 -139.9782,211.8143 -458.81335,156.5153 -521.77809,-90.4975 -0.91094,-3.5737 -2.17757,-6.8293 -2.81473,-7.2347 -2.80717,-1.7862 -462.68146,-0.8715 -463.36956,0.9217 -0.84085,2.1912 1.14852,22.3491 4.30841,43.6565 52.07234,351.1273 341.8569,615.7651 696.40267,635.9706 14.13923,0.8058 72.2273,0.5745 86.5171,-0.3445 z M 1053,1193.6124 c 126.8439,-21.047 186.8793,-167.7669 110.8146,-270.81873 C 1081.9428,811.87444 907.93848,838.66167 863.6677,969 822.51269,1090.1652 927.29346,1214.4707 1053,1193.6124 Z M 744.01341,960.75 C 819.82618,665.28481 1229.6965,660.43361 1305.8049,954.10067 L 1308.5,964.5 l 231.2806,0.25213 c 205.2139,0.22371 231.3457,0.0824 231.8584,-1.25372 0.7311,-1.90528 -2.0027,-26.97801 -5.2881,-48.49841 C 1717.1559,592.75515 1459.6976,337.85777 1137.136,292.04384 719.188,232.68203 337.96859,527.94897 290.46116,947.8213 c -0.89123,7.87671 -1.37371,14.96421 -1.07217,15.75 0.47293,1.23245 31.65997,1.4287 227.04108,1.4287 h 226.49284 z"
       id="path454"
       inkscape:connector-curvature="0" />
    <path
       style="fill:#4a0e0e"
       d="m 981.5,1903.3469 c -2.2,-0.1742 -11.2,-0.7932 -20,-1.3754 C 489.12561,1870.7174 121.98768,1455.356 147.01154,980.5 178.77828,377.69037 792.10234,-16.455638 1351.4703,206.4677 c 588.873,234.68187 743.5917,997.3538 292.8706,1443.6797 -174.1951,172.4965 -433.1056,271.398 -662.8409,253.1995 z m 89.5,-139.4296 c 334.2038,-21.4862 616.1873,-268.9131 681.4246,-597.9173 6.2919,-31.7312 12.7281,-79.3259 11.0864,-81.9821 -1.0096,-1.6336 -453.9528,-1.3954 -455.3096,0.2394 -0.5739,0.6916 -2.1839,5.7541 -3.5778,11.25 -36.7212,144.7941 -178.7953,237.393 -326.6236,212.8818 -111.43467,-18.4767 -205.10256,-105.0744 -231.12856,-213.6825 -1.2134,-5.0636 -2.63597,-9.7691 -3.16126,-10.4566 -1.4905,-1.9508 -464.27574,-1.8245 -465.02455,0.1269 -0.29059,0.7572 -0.34062,3.1197 -0.11116,5.25 8.45185,78.4662 23.13251,139.9227 48.98394,205.0577 119.64012,301.4439 418.57231,490.1188 743.44159,469.2327 z m -22.8636,-569.3723 c 135.2828,-18.0099 196.3328,-176.6009 108.3425,-281.44387 -79.074,-94.21901 -232.22225,-74.41041 -285.38645,36.91262 -58.31212,122.10255 43.22606,262.34605 177.04395,244.53125 z M 744.01341,960.75 C 819.82618,665.28481 1229.6965,660.43361 1305.8049,954.10067 L 1308.5,964.5 l 231.2806,0.25213 c 205.2139,0.22371 231.3457,0.0824 231.8584,-1.25372 0.7311,-1.90528 -2.0027,-26.97801 -5.2881,-48.49841 C 1717.1559,592.75515 1459.6976,337.85777 1137.136,292.04384 719.188,232.68203 337.96859,527.94897 290.46116,947.8213 c -0.89123,7.87671 -1.37371,14.96421 -1.07217,15.75 0.47293,1.23245 31.65997,1.4287 227.04108,1.4287 h 226.49284 z"
       id="path452"
       inkscape:connector-curvature="0" />
    <path
       style="fill:#2f0a0a"
       d="m 981.5,1903.3469 c -2.2,-0.1742 -11.2,-0.7932 -20,-1.3754 C 489.12561,1870.7174 121.98768,1455.356 147.01154,980.5 178.77828,377.69037 792.10234,-16.455638 1351.4703,206.4677 c 588.873,234.68187 743.5917,997.3538 292.8706,1443.6797 -174.1951,172.4965 -433.1056,271.398 -662.8409,253.1995 z m 89.5,-139.4296 c 334.2038,-21.4862 616.1873,-268.9131 681.4246,-597.9173 6.2919,-31.7312 12.7281,-79.3259 11.0864,-81.9821 -1.0096,-1.6336 -453.9528,-1.3954 -455.3096,0.2394 -0.5739,0.6916 -2.1839,5.7541 -3.5778,11.25 -36.7212,144.7941 -178.7953,237.393 -326.6236,212.8818 -111.43467,-18.4767 -205.10256,-105.0744 -231.12856,-213.6825 -1.2134,-5.0636 -2.63597,-9.7691 -3.16126,-10.4566 -1.4905,-1.9508 -464.27574,-1.8245 -465.02455,0.1269 -0.29059,0.7572 -0.34062,3.1197 -0.11116,5.25 8.45185,78.4662 23.13251,139.9227 48.98394,205.0577 119.64012,301.4439 418.57231,490.1188 743.44159,469.2327 z m -22.8636,-569.3723 c 135.2828,-18.0099 196.3328,-176.6009 108.3425,-281.44387 -79.074,-94.21901 -232.22225,-74.41041 -285.38645,36.91262 -58.31212,122.10255 43.22606,262.34605 177.04395,244.53125 z M 742.22476,964.75 c 0.88386,-0.6875 2.99612,-6.51961 4.69392,-12.96025 75.16517,-285.14029 482.40852,-285.47689 557.59372,-0.46087 1.8891,7.16122 4.0091,13.38492 4.7112,13.83044 2.864,1.81754 462.4109,0.25497 463.0947,-1.57463 0.598,-1.6002 -1.8999,-24.57836 -4.8468,-44.58469 C 1719.7353,594.91328 1462.5824,338.6016 1138,291.58753 758.43148,236.60901 398.97317,478.73272 306.94749,851.36737 c -10.46077,42.35826 -20.69092,109.74634 -17.19174,113.24552 1.95898,1.95898 449.95226,2.09473 452.46901,0.13711 z"
       id="path450"
       inkscape:connector-curvature="0" />
    <path
       style="fill:#161616"
       d="m 981.5,1903.3469 c -2.2,-0.1742 -11.2,-0.7932 -20,-1.3754 C 489.12561,1870.7174 121.98768,1455.356 147.01154,980.5 178.77828,377.69037 792.10234,-16.455638 1351.4703,206.4677 c 588.873,234.68187 743.5917,997.3538 292.8706,1443.6797 -174.1951,172.4965 -433.1056,271.398 -662.8409,253.1995 z m 89.5,-139.4296 c 334.2038,-21.4862 616.1873,-268.9131 681.4246,-597.9173 6.2919,-31.7312 12.7281,-79.3259 11.0864,-81.9821 -1.0096,-1.6336 -453.9528,-1.3954 -455.3096,0.2394 -0.5739,0.6916 -2.1839,5.7541 -3.5778,11.25 -36.7212,144.7941 -178.7953,237.393 -326.6236,212.8818 -111.43467,-18.4767 -205.10256,-105.0744 -231.12856,-213.6825 -1.2134,-5.0636 -2.63597,-9.7691 -3.16126,-10.4566 -1.4905,-1.9508 -464.27574,-1.8245 -465.02455,0.1269 -0.29059,0.7572 -0.34062,3.1197 -0.11116,5.25 8.45185,78.4662 23.13251,139.9227 48.98394,205.0577 119.64012,301.4439 418.57231,490.1188 743.44159,469.2327 z m -22.8636,-569.3723 c 135.2828,-18.0099 196.3328,-176.6009 108.3425,-281.44387 -79.074,-94.21901 -232.22225,-74.41041 -285.38645,36.91262 -58.31212,122.10255 43.22606,262.34605 177.04395,244.53125 z M 743.7466,964.75 c 0.54531,-0.6875 1.5576,-3.725 2.24952,-6.75 65.80514,-287.69285 486.06758,-292.79479 558.06008,-6.77479 1.1456,4.55114 2.5364,9.73729 3.0909,11.52479 l 1.008,3.25 h 231.9538 c 216.82,0 231.9962,-0.11023 232.6022,-1.68947 0.7788,-2.02952 -1.0401,-21.53605 -3.8054,-40.81053 C 1711.7901,525.39603 1349.644,244.17325 950,287.58265 612.51463,324.24035 340.86124,586.38625 292.57364,922 c -3.21323,22.33294 -5.01998,40.39448 -4.24326,42.41858 0.81849,2.13294 453.72584,2.46254 455.41622,0.33142 z"
       id="path448"
       inkscape:connector-curvature="0" />
    <path
       style="fill:#000000"
       d="M 985,1902.9263 C 283.25251,1870.21 -99.088715,1061.5088 321.00939,498.5 714.57158,-28.945758 1532.2896,49.075217 1817.9933,641.33181 2106.9188,1240.267 1648.9466,1933.8802 985,1902.9263 Z m 79,-137.9532 c 349.7132,-21.5676 635.2429,-277.8873 693.4094,-622.4731 2.1514,-12.7452 3.488,-22.8368 7.047,-53.204 0.3492,-2.9794 0.042,-4.6544 -1.0533,-5.75 -1.6847,-1.6847 -452.4687,-2.4271 -455.108,-0.7495 -0.6628,0.4212 -2.7603,6.8342 -4.6612,14.2511 -73.2548,285.8209 -485.49635,282.8233 -556.64014,-4.0476 -1.15939,-4.675 -2.8433,-9.0625 -3.74201,-9.75 -1.72218,-1.3174 -460.25531,-1.9533 -463.66996,-0.643 -3.30032,1.2664 1.14115,41.1017 9.01925,80.893 66.65612,336.672 349.4506,582.1151 693.39896,601.815 13.8936,0.7958 67.1538,0.5737 82,-0.3419 z m -23,-569.0423 c 130.624,-12.0669 200.6297,-158.0706 128.0497,-267.05987 C 1095.1176,817.85143 928.2915,829.78487 870.49411,950.22726 813.3591,1069.2893 909.66154,1208.0637 1041,1195.9308 Z M 745.02009,961.75 c 11.86876,-45.97429 25.79474,-76.18098 50.26104,-109.02066 143.24688,-192.27187 450.48647,-132.57405 508.31267,98.76707 1.3753,5.50197 2.9196,11.01609 3.4319,12.25359 l 0.9314,2.25 h 232.0528 c 216.9129,0 232.0952,-0.11023 232.7012,-1.68947 C 1774.8264,958.79808 1765.5788,896.59543 1757.352,861 1683.5987,541.88674 1410.6608,308.6017 1083.5,285.04641 704.60997,257.76666 363.9471,522.47329 296.59286,896.5 c -4.85405,26.95519 -9.52963,66.17526 -8.1543,68.40059 0.49072,0.794 63.85131,1.09941 228.08191,1.09941 h 227.40244 z"
       id="path446"
       inkscape:connector-curvature="0" />
  </g>
</svg>
